<?xml version="1.0" encoding="UTF-8" standalone="no"?>
<!DOCTYPE svg PUBLIC "-//W3C//DTD SVG 1.1//EN"
 "http://www.w3.org/Graphics/SVG/1.1/DTD/svg11.dtd">
<!-- Generated by graphviz version 2.43.20190912.0211 (20190912.0211)
 -->
<!-- Title: slave_fsm Pages: 1 -->
<svg width="1001pt" height="440pt"
 viewBox="0.00 0.00 1000.66 440.00" xmlns="http://www.w3.org/2000/svg" xmlns:xlink="http://www.w3.org/1999/xlink">
<g id="graph0" class="graph" transform="scale(1 1) rotate(0) translate(4 436)">
<title>slave_fsm</title>
<polygon fill="white" stroke="transparent" points="-4,4 -4,-436 996.66,-436 996.66,4 -4,4"/>
<!-- reset -->
<g id="node1" class="node">
<title>reset</title>
<ellipse fill="#eef0ff" stroke="#444444" cx="5.4" cy="-193" rx="5.4" ry="5.4"/>
</g>
<!-- IDLE -->
<g id="node2" class="node">
<title>IDLE</title>
<ellipse fill="#eaf7ea" stroke="#444444" cx="144.35" cy="-193" rx="30.59" ry="18"/>
<text text-anchor="middle" x="144.35" y="-189.3" font-family="Helvetica,sans-Serif" font-size="14.00">IDLE</text>
</g>
<!-- reset&#45;&gt;IDLE -->
<g id="edge1" class="edge">
<title>reset&#45;&gt;IDLE</title>
<path fill="none" stroke="#444444" d="M10.96,-193C25.21,-193 70.03,-193 103.6,-193"/>
<polygon fill="#444444" stroke="#444444" points="103.61,-196.5 113.61,-193 103.61,-189.5 103.61,-196.5"/>
<text text-anchor="middle" x="62.3" y="-196.8" font-family="Helvetica,sans-Serif" font-size="14.00">reset</text>
</g>
<!-- WRITE_CHANNEL -->
<g id="node3" class="node">
<title>WRITE_CHANNEL</title>
<ellipse fill="#eef0ff" stroke="#444444" cx="468.94" cy="-334" rx="86.38" ry="18"/>
<text text-anchor="middle" x="468.94" y="-330.3" font-family="Helvetica,sans-Serif" font-size="14.00">WRITE_CHANNEL</text>
</g>
<!-- IDLE&#45;&gt;WRITE_CHANNEL -->
<g id="edge2" class="edge">
<title>IDLE&#45;&gt;WRITE_CHANNEL</title>
<path fill="none" stroke="#444444" d="M153.63,-210.16C164.12,-229.97 184.1,-262.01 210.89,-279 259.31,-309.7 322.11,-323.52 373.51,-329.62"/>
<polygon fill="#444444" stroke="#444444" points="373.31,-333.12 383.63,-330.75 374.08,-326.17 373.31,-333.12"/>
<text text-anchor="middle" x="277.39" y="-327.8" font-family="Helvetica,sans-Serif" font-size="14.00">S_AWVALID</text>
</g>
<!-- RADDR_CHANNEL -->
<g id="node5" class="node">
<title>RADDR_CHANNEL</title>
<ellipse fill="#eef0ff" stroke="#444444" cx="468.94" cy="-18" rx="89.08" ry="18"/>
<text text-anchor="middle" x="468.94" y="-14.3" font-family="Helvetica,sans-Serif" font-size="14.00">RADDR_CHANNEL</text>
</g>
<!-- IDLE&#45;&gt;RADDR_CHANNEL -->
<g id="edge3" class="edge">
<title>IDLE&#45;&gt;RADDR_CHANNEL</title>
<path fill="none" stroke="#444444" d="M149.52,-174.84C156.89,-147.15 174.93,-94.78 210.89,-68 256.19,-34.28 318.05,-21.51 369.73,-17.3"/>
<polygon fill="#444444" stroke="#444444" points="370.2,-20.77 379.92,-16.57 369.7,-13.79 370.2,-20.77"/>
<text text-anchor="middle" x="277.39" y="-86.8" font-family="Helvetica,sans-Serif" font-size="14.00">S_ARVALID</text>
<text text-anchor="middle" x="277.39" y="-71.8" font-family="Helvetica,sans-Serif" font-size="14.00">when no write request</text>
</g>
<!-- WRITE_CHANNEL&#45;&gt;WRITE_CHANNEL -->
<g id="edge4" class="edge">
<title>WRITE_CHANNEL&#45;&gt;WRITE_CHANNEL</title>
<path fill="none" stroke="#888888" d="M444.58,-351.42C423.71,-374.33 431.83,-402 468.94,-402 501.7,-402 511.86,-380.44 499.43,-359.62"/>
<polygon fill="#888888" stroke="#888888" points="502.09,-357.32 493.29,-351.42 496.49,-361.52 502.09,-357.32"/>
<text text-anchor="middle" x="468.94" y="-420.8" font-family="Helvetica,sans-Serif" font-size="14.00">capture AW first</text>
<text text-anchor="middle" x="468.94" y="-405.8" font-family="Helvetica,sans-Serif" font-size="14.00">or capture W first</text>
</g>
<!-- WRESP_CHANNEL -->
<g id="node4" class="node">
<title>WRESP_CHANNEL</title>
<ellipse fill="#eef0ff" stroke="#444444" cx="902.32" cy="-291" rx="90.18" ry="18"/>
<text text-anchor="middle" x="902.32" y="-287.3" font-family="Helvetica,sans-Serif" font-size="14.00">WRESP_CHANNEL</text>
</g>
<!-- WRITE_CHANNEL&#45;&gt;WRESP_CHANNEL -->
<g id="edge5" class="edge">
<title>WRITE_CHANNEL&#45;&gt;WRESP_CHANNEL</title>
<path fill="none" stroke="#444444" d="M547.56,-326.26C621.5,-318.89 732.78,-307.8 810.74,-300.03"/>
<polygon fill="#444444" stroke="#444444" points="811.43,-303.48 821.03,-299 810.74,-296.51 811.43,-303.48"/>
<text text-anchor="middle" x="684.98" y="-324.8" font-family="Helvetica,sans-Serif" font-size="14.00">aw_complete &amp;&amp; w_complete</text>
</g>
<!-- WRESP_CHANNEL&#45;&gt;IDLE -->
<g id="edge6" class="edge">
<title>WRESP_CHANNEL&#45;&gt;IDLE</title>
<path fill="none" stroke="#444444" d="M813.07,-287.88C680.74,-281.75 423.73,-264.23 210.89,-216 200.49,-213.64 189.44,-210.16 179.44,-206.62"/>
<polygon fill="#444444" stroke="#444444" points="180.45,-203.27 169.85,-203.1 178.03,-209.84 180.45,-203.27"/>
<text text-anchor="middle" x="468.94" y="-271.8" font-family="Helvetica,sans-Serif" font-size="14.00">S_BVALID &amp;&amp; S_BREADY</text>
</g>
<!-- RDATA_CHANNEL -->
<g id="node6" class="node">
<title>RDATA_CHANNEL</title>
<ellipse fill="#eef0ff" stroke="#444444" cx="902.32" cy="-113" rx="87.18" ry="18"/>
<text text-anchor="middle" x="902.32" y="-109.3" font-family="Helvetica,sans-Serif" font-size="14.00">RDATA_CHANNEL</text>
</g>
<!-- RADDR_CHANNEL&#45;&gt;RDATA_CHANNEL -->
<g id="edge7" class="edge">
<title>RADDR_CHANNEL&#45;&gt;RDATA_CHANNEL</title>
<path fill="none" stroke="#444444" d="M532.17,-30.73C594.08,-43.51 691.74,-63.98 775.98,-83 795.4,-87.39 816.47,-92.35 835.68,-96.96"/>
<polygon fill="#444444" stroke="#444444" points="835.01,-100.39 845.55,-99.33 836.64,-93.59 835.01,-100.39"/>
<text text-anchor="middle" x="684.98" y="-86.8" font-family="Helvetica,sans-Serif" font-size="14.00">S_ARVALID &amp;&amp; S_ARREADY</text>
</g>
<!-- RDATA_CHANNEL&#45;&gt;IDLE -->
<g id="edge8" class="edge">
<title>RDATA_CHANNEL&#45;&gt;IDLE</title>
<path fill="none" stroke="#444444" d="M824.41,-121.14C665.17,-137.99 304.28,-176.18 184.68,-188.84"/>
<polygon fill="#444444" stroke="#444444" points="184.1,-185.38 174.52,-189.91 184.83,-192.34 184.1,-185.38"/>
<text text-anchor="middle" x="468.94" y="-170.8" font-family="Helvetica,sans-Serif" font-size="14.00">S_RVALID &amp;&amp; S_RREADY</text>
</g>
</g>
</svg>
