<?xml version="1.0" encoding="UTF-8" standalone="no"?>
<!DOCTYPE svg PUBLIC "-//W3C//DTD SVG 1.1//EN"
 "http://www.w3.org/Graphics/SVG/1.1/DTD/svg11.dtd">
<!-- Generated by graphviz version 2.43.20190912.0211 (20190912.0211)
 -->
<!-- Title: slave_datapath Pages: 1 -->
<svg width="2409pt" height="557pt"
 viewBox="0.00 0.00 2409.00 557.00" xmlns="http://www.w3.org/2000/svg" xmlns:xlink="http://www.w3.org/1999/xlink">
<g id="graph0" class="graph" transform="scale(1 1) rotate(0) translate(4 553)">
<title>slave_datapath</title>
<polygon fill="white" stroke="transparent" points="-4,4 -4,-553 2405,-553 2405,4 -4,4"/>
<!-- ar -->
<g id="node1" class="node">
<title>ar</title>
<path fill="#e8f1fb" stroke="#444444" d="M257,-305C257,-305 12,-305 12,-305 6,-305 0,-299 0,-293 0,-293 0,-279 0,-279 0,-273 6,-267 12,-267 12,-267 257,-267 257,-267 263,-267 269,-273 269,-279 269,-279 269,-293 269,-293 269,-299 263,-305 257,-305"/>
<text text-anchor="middle" x="134.5" y="-289.8" font-family="Helvetica,sans-Serif" font-size="14.00">Read Address Channel</text>
<text text-anchor="middle" x="134.5" y="-274.8" font-family="Helvetica,sans-Serif" font-size="14.00">S_ARADDR / S_ARVALID / S_ARREADY</text>
</g>
<!-- addr_latch -->
<g id="node6" class="node">
<title>addr_latch</title>
<path fill="#fff6dd" stroke="#444444" d="M982.5,-413C982.5,-413 867.5,-413 867.5,-413 861.5,-413 855.5,-407 855.5,-401 855.5,-401 855.5,-387 855.5,-387 855.5,-381 861.5,-375 867.5,-375 867.5,-375 982.5,-375 982.5,-375 988.5,-375 994.5,-381 994.5,-387 994.5,-387 994.5,-401 994.5,-401 994.5,-407 988.5,-413 982.5,-413"/>
<text text-anchor="middle" x="925" y="-397.8" font-family="Helvetica,sans-Serif" font-size="14.00">Read Address Latch</text>
<text text-anchor="middle" x="925" y="-382.8" font-family="Helvetica,sans-Serif" font-size="14.00">addr</text>
</g>
<!-- ar&#45;&gt;addr_latch -->
<g id="edge3" class="edge">
<title>ar&#45;&gt;addr_latch</title>
<path fill="none" stroke="#444444" d="M234.71,-305.04C369.52,-330.92 594,-374 594,-374 594,-374 747.46,-383.3 845.08,-389.22"/>
<polygon fill="#444444" stroke="#444444" points="845.03,-392.72 855.22,-389.83 845.45,-385.73 845.03,-392.72"/>
<text text-anchor="middle" x="495.5" y="-372.8" font-family="Helvetica,sans-Serif" font-size="14.00">AR handshake</text>
</g>
<!-- fsm -->
<g id="node11" class="node">
<title>fsm</title>
<path fill="#eef0ff" stroke="#444444" d="M553,-279C553,-279 438,-279 438,-279 432,-279 426,-273 426,-267 426,-267 426,-193 426,-193 426,-187 432,-181 438,-181 438,-181 553,-181 553,-181 559,-181 565,-187 565,-193 565,-193 565,-267 565,-267 565,-273 559,-279 553,-279"/>
<text text-anchor="middle" x="495.5" y="-263.8" font-family="Helvetica,sans-Serif" font-size="14.00">Slave Control FSM</text>
<text text-anchor="middle" x="495.5" y="-248.8" font-family="Helvetica,sans-Serif" font-size="14.00">IDLE</text>
<text text-anchor="middle" x="495.5" y="-233.8" font-family="Helvetica,sans-Serif" font-size="14.00">WRITE_CHANNEL</text>
<text text-anchor="middle" x="495.5" y="-218.8" font-family="Helvetica,sans-Serif" font-size="14.00">WRESP_CHANNEL</text>
<text text-anchor="middle" x="495.5" y="-203.8" font-family="Helvetica,sans-Serif" font-size="14.00">RADDR_CHANNEL</text>
<text text-anchor="middle" x="495.5" y="-188.8" font-family="Helvetica,sans-Serif" font-size="14.00">RDATA_CHANNEL</text>
</g>
<!-- ar&#45;&gt;fsm -->
<g id="edge1" class="edge">
<title>ar&#45;&gt;fsm</title>
<path fill="none" stroke="#444444" d="M259.74,-267C327.21,-256.68 397,-246 397,-246 397,-246 404.77,-244.73 415.92,-242.89"/>
<polygon fill="#444444" stroke="#444444" points="416.69,-246.32 425.99,-241.24 415.55,-239.41 416.69,-246.32"/>
<text text-anchor="middle" x="347.5" y="-264.8" font-family="Helvetica,sans-Serif" font-size="14.00">read request</text>
</g>
<!-- aw -->
<g id="node2" class="node">
<title>aw</title>
<path fill="#e8f1fb" stroke="#444444" d="M1052,-175C1052,-175 798,-175 798,-175 792,-175 786,-169 786,-163 786,-163 786,-149 786,-149 786,-143 792,-137 798,-137 798,-137 1052,-137 1052,-137 1058,-137 1064,-143 1064,-149 1064,-149 1064,-163 1064,-163 1064,-169 1058,-175 1052,-175"/>
<text text-anchor="middle" x="925" y="-159.8" font-family="Helvetica,sans-Serif" font-size="14.00">Write Address Channel</text>
<text text-anchor="middle" x="925" y="-144.8" font-family="Helvetica,sans-Serif" font-size="14.00">S_AWADDR / S_AWVALID / S_AWREADY</text>
</g>
<!-- write_buf -->
<g id="node7" class="node">
<title>write_buf</title>
<path fill="#fff6dd" stroke="#444444" d="M1514,-86.5C1514,-86.5 1363,-86.5 1363,-86.5 1357,-86.5 1351,-80.5 1351,-74.5 1351,-74.5 1351,-15.5 1351,-15.5 1351,-9.5 1357,-3.5 1363,-3.5 1363,-3.5 1514,-3.5 1514,-3.5 1520,-3.5 1526,-9.5 1526,-15.5 1526,-15.5 1526,-74.5 1526,-74.5 1526,-80.5 1520,-86.5 1514,-86.5"/>
<text text-anchor="middle" x="1438.5" y="-71.3" font-family="Helvetica,sans-Serif" font-size="14.00">Write Buffers</text>
<text text-anchor="middle" x="1438.5" y="-56.3" font-family="Helvetica,sans-Serif" font-size="14.00">awaddr_latched</text>
<text text-anchor="middle" x="1438.5" y="-41.3" font-family="Helvetica,sans-Serif" font-size="14.00">wdata_latched</text>
<text text-anchor="middle" x="1438.5" y="-26.3" font-family="Helvetica,sans-Serif" font-size="14.00">wstrb_latched</text>
<text text-anchor="middle" x="1438.5" y="-11.3" font-family="Helvetica,sans-Serif" font-size="14.00">aw_captured / w_captured</text>
</g>
<!-- aw&#45;&gt;write_buf -->
<g id="edge11" class="edge">
<title>aw&#45;&gt;write_buf</title>
<path fill="none" stroke="#444444" d="M1016.75,-137C1066.03,-126.68 1117,-116 1117,-116 1117,-116 1322,-74 1322,-74 1322,-74 1329.65,-72.08 1341.01,-69.23"/>
<polygon fill="#444444" stroke="#444444" points="1342,-72.59 1350.85,-66.76 1340.3,-65.8 1342,-72.59"/>
<text text-anchor="middle" x="1219.5" y="-119.8" font-family="Helvetica,sans-Serif" font-size="14.00">capture address if W pending</text>
</g>
<!-- aw&#45;&gt;fsm -->
<g id="edge7" class="edge">
<title>aw&#45;&gt;fsm</title>
<path fill="none" stroke="#444444" d="M785.95,-151.66C755.96,-150.72 733,-150 733,-150 733,-150 594,-150 594,-150 594,-150 580.83,-160.81 564.17,-174.48"/>
<polygon fill="#444444" stroke="#444444" points="561.81,-171.88 556.3,-180.93 566.25,-177.29 561.81,-171.88"/>
<text text-anchor="middle" x="663.5" y="-153.8" font-family="Helvetica,sans-Serif" font-size="14.00">AW handshake</text>
</g>
<!-- guard -->
<g id="node12" class="node">
<title>guard</title>
<path fill="#fdeaea" stroke="#444444" d="M1958,-178C1958,-178 1814,-178 1814,-178 1808,-178 1802,-172 1802,-166 1802,-166 1802,-152 1802,-152 1802,-146 1808,-140 1814,-140 1814,-140 1958,-140 1958,-140 1964,-140 1970,-146 1970,-152 1970,-152 1970,-166 1970,-166 1970,-172 1964,-178 1958,-178"/>
<text text-anchor="middle" x="1886" y="-162.8" font-family="Helvetica,sans-Serif" font-size="14.00">Write Guard</text>
<text text-anchor="middle" x="1886" y="-147.8" font-family="Helvetica,sans-Serif" font-size="14.00">block writes to ID register</text>
</g>
<!-- aw&#45;&gt;guard -->
<g id="edge13" class="edge">
<title>aw&#45;&gt;guard</title>
<path fill="none" stroke="#444444" d="M1064.17,-156.43C1262.34,-157.05 1622.03,-158.18 1791.68,-158.71"/>
<polygon fill="#444444" stroke="#444444" points="1791.83,-162.21 1801.84,-158.74 1791.85,-155.21 1791.83,-162.21"/>
<text text-anchor="middle" x="1438.5" y="-161.8" font-family="Helvetica,sans-Serif" font-size="14.00">pending_write_addr</text>
</g>
<!-- w -->
<g id="node3" class="node">
<title>w</title>
<path fill="#e8f1fb" stroke="#444444" d="M1076,-71C1076,-71 774,-71 774,-71 768,-71 762,-65 762,-59 762,-59 762,-45 762,-45 762,-39 768,-33 774,-33 774,-33 1076,-33 1076,-33 1082,-33 1088,-39 1088,-45 1088,-45 1088,-59 1088,-59 1088,-65 1082,-71 1076,-71"/>
<text text-anchor="middle" x="925" y="-55.8" font-family="Helvetica,sans-Serif" font-size="14.00">Write Data Channel</text>
<text text-anchor="middle" x="925" y="-40.8" font-family="Helvetica,sans-Serif" font-size="14.00">S_WDATA / S_WSTRB / S_WVALID / S_WREADY</text>
</g>
<!-- w&#45;&gt;write_buf -->
<g id="edge12" class="edge">
<title>w&#45;&gt;write_buf</title>
<path fill="none" stroke="#444444" d="M1088.19,-49.78C1171.16,-48.64 1269.37,-47.3 1340.49,-46.33"/>
<polygon fill="#444444" stroke="#444444" points="1340.83,-49.82 1350.78,-46.19 1340.73,-42.82 1340.83,-49.82"/>
<text text-anchor="middle" x="1219.5" y="-53.8" font-family="Helvetica,sans-Serif" font-size="14.00">capture data/strobe if AW pending</text>
</g>
<!-- w&#45;&gt;fsm -->
<g id="edge8" class="edge">
<title>w&#45;&gt;fsm</title>
<path fill="none" stroke="#444444" d="M839.02,-71.06C741.24,-92.98 594,-126 594,-126 594,-126 572.55,-148.88 549.77,-173.18"/>
<polygon fill="#444444" stroke="#444444" points="546.97,-171.05 542.68,-180.74 552.07,-175.84 546.97,-171.05"/>
<text text-anchor="middle" x="663.5" y="-129.8" font-family="Helvetica,sans-Serif" font-size="14.00">W handshake</text>
</g>
<!-- r -->
<g id="node4" class="node">
<title>r</title>
<path fill="#eaf7ea" stroke="#444444" d="M2030,-549C2030,-549 1742,-549 1742,-549 1736,-549 1730,-543 1730,-537 1730,-537 1730,-523 1730,-523 1730,-517 1736,-511 1742,-511 1742,-511 2030,-511 2030,-511 2036,-511 2042,-517 2042,-523 2042,-523 2042,-537 2042,-537 2042,-543 2036,-549 2030,-549"/>
<text text-anchor="middle" x="1886" y="-533.8" font-family="Helvetica,sans-Serif" font-size="14.00">Read Response Channel</text>
<text text-anchor="middle" x="1886" y="-518.8" font-family="Helvetica,sans-Serif" font-size="14.00">S_RDATA / S_RRESP / S_RVALID / S_RREADY</text>
</g>
<!-- b -->
<g id="node5" class="node">
<title>b</title>
<path fill="#eaf7ea" stroke="#444444" d="M1032,-339C1032,-339 818,-339 818,-339 812,-339 806,-333 806,-327 806,-327 806,-313 806,-313 806,-307 812,-301 818,-301 818,-301 1032,-301 1032,-301 1038,-301 1044,-307 1044,-313 1044,-313 1044,-327 1044,-327 1044,-333 1038,-339 1032,-339"/>
<text text-anchor="middle" x="925" y="-323.8" font-family="Helvetica,sans-Serif" font-size="14.00">Write Response Channel</text>
<text text-anchor="middle" x="925" y="-308.8" font-family="Helvetica,sans-Serif" font-size="14.00">S_BRESP / S_BVALID / S_BREADY</text>
</g>
<!-- regbank -->
<g id="node9" class="node">
<title>regbank</title>
<path fill="#f3ebff" stroke="#444444" d="M1494,-443C1494,-443 1383,-443 1383,-443 1377,-443 1371,-437 1371,-431 1371,-431 1371,-417 1371,-417 1371,-411 1377,-405 1383,-405 1383,-405 1494,-405 1494,-405 1500,-405 1506,-411 1506,-417 1506,-417 1506,-431 1506,-431 1506,-437 1500,-443 1494,-443"/>
<text text-anchor="middle" x="1438.5" y="-427.8" font-family="Helvetica,sans-Serif" font-size="14.00">Register Bank</text>
<text text-anchor="middle" x="1438.5" y="-412.8" font-family="Helvetica,sans-Serif" font-size="14.00">32 x 32&#45;bit registers</text>
</g>
<!-- addr_latch&#45;&gt;regbank -->
<g id="edge4" class="edge">
<title>addr_latch&#45;&gt;regbank</title>
<path fill="none" stroke="#444444" d="M994.53,-397.81C1107.87,-404.1 1322,-416 1322,-416 1322,-416 1339.53,-417.21 1360.93,-418.7"/>
<polygon fill="#444444" stroke="#444444" points="1360.76,-422.19 1370.98,-419.39 1361.25,-415.21 1360.76,-422.19"/>
<text text-anchor="middle" x="1219.5" y="-419.8" font-family="Helvetica,sans-Serif" font-size="14.00">read index</text>
</g>
<!-- write_buf&#45;&gt;guard -->
<g id="edge14" class="edge">
<title>write_buf&#45;&gt;guard</title>
<path fill="none" stroke="#444444" d="M1526.19,-67.18C1605.57,-87.5 1722.31,-117.37 1800.87,-137.47"/>
<polygon fill="#444444" stroke="#444444" points="1800.18,-140.91 1810.74,-140 1801.92,-134.13 1800.18,-140.91"/>
<text text-anchor="middle" x="1628" y="-112.8" font-family="Helvetica,sans-Serif" font-size="14.00">latched addr/data/strobe</text>
</g>
<!-- merge -->
<g id="node8" class="node">
<title>merge</title>
<path fill="#fdeaea" stroke="#444444" d="M2389,-310C2389,-310 2252,-310 2252,-310 2246,-310 2240,-304 2240,-298 2240,-298 2240,-284 2240,-284 2240,-278 2246,-272 2252,-272 2252,-272 2389,-272 2389,-272 2395,-272 2401,-278 2401,-284 2401,-284 2401,-298 2401,-298 2401,-304 2395,-310 2389,-310"/>
<text text-anchor="middle" x="2320.5" y="-294.8" font-family="Helvetica,sans-Serif" font-size="14.00">apply_wstrb()</text>
<text text-anchor="middle" x="2320.5" y="-279.8" font-family="Helvetica,sans-Serif" font-size="14.00">byte&#45;enable merge logic</text>
</g>
<!-- merge&#45;&gt;regbank -->
<g id="edge17" class="edge">
<title>merge&#45;&gt;regbank</title>
<path fill="none" stroke="#444444" d="M2240,-299.63C2079.09,-317.1 1730,-355 1730,-355 1730,-355 1555,-396 1555,-396 1555,-396 1537.31,-400.29 1515.78,-405.51"/>
<polygon fill="#444444" stroke="#444444" points="1514.91,-402.12 1506.02,-407.87 1516.56,-408.92 1514.91,-402.12"/>
<text text-anchor="middle" x="1886" y="-358.8" font-family="Helvetica,sans-Serif" font-size="14.00">updated value</text>
</g>
<!-- regbank&#45;&gt;r -->
<g id="edge5" class="edge">
<title>regbank&#45;&gt;r</title>
<path fill="none" stroke="#444444" d="M1506.02,-440.13C1531.69,-446.35 1555,-452 1555,-452 1555,-452 1696.68,-485.49 1794.37,-508.58"/>
<polygon fill="#444444" stroke="#444444" points="1793.74,-512.02 1804.27,-510.92 1795.35,-505.21 1793.74,-512.02"/>
<text text-anchor="middle" x="1628" y="-489.8" font-family="Helvetica,sans-Serif" font-size="14.00">selected register data</text>
</g>
<!-- regbank&#45;&gt;merge -->
<g id="edge16" class="edge">
<title>regbank&#45;&gt;merge</title>
<path fill="none" stroke="#444444" d="M1506.28,-418.89C1693.7,-404.56 2211,-365 2211,-365 2211,-365 2251.45,-337.41 2282.95,-315.93"/>
<polygon fill="#444444" stroke="#444444" points="2285.27,-318.58 2291.56,-310.06 2281.32,-312.8 2285.27,-318.58"/>
<text text-anchor="middle" x="1886" y="-405.8" font-family="Helvetica,sans-Serif" font-size="14.00">current value</text>
</g>
<!-- idreg -->
<g id="node10" class="node">
<title>idreg</title>
<path fill="#fcefd8" stroke="#444444" d="M987.5,-502.5C987.5,-502.5 862.5,-502.5 862.5,-502.5 856.5,-502.5 850.5,-496.5 850.5,-490.5 850.5,-490.5 850.5,-461.5 850.5,-461.5 850.5,-455.5 856.5,-449.5 862.5,-449.5 862.5,-449.5 987.5,-449.5 987.5,-449.5 993.5,-449.5 999.5,-455.5 999.5,-461.5 999.5,-461.5 999.5,-490.5 999.5,-490.5 999.5,-496.5 993.5,-502.5 987.5,-502.5"/>
<text text-anchor="middle" x="925" y="-487.3" font-family="Helvetica,sans-Serif" font-size="14.00">Read&#45;only ID Register</text>
<text text-anchor="middle" x="925" y="-472.3" font-family="Helvetica,sans-Serif" font-size="14.00">addr = 1</text>
<text text-anchor="middle" x="925" y="-457.3" font-family="Helvetica,sans-Serif" font-size="14.00">value = 0x00018644</text>
</g>
<!-- idreg&#45;&gt;regbank -->
<g id="edge18" class="edge">
<title>idreg&#45;&gt;regbank</title>
<path fill="none" stroke="#444444" stroke-dasharray="5,2" d="M999.56,-468.57C1114.08,-457 1322,-436 1322,-436 1322,-436 1339.53,-434.18 1360.93,-431.96"/>
<polygon fill="#444444" stroke="#444444" points="1361.4,-435.43 1370.98,-430.91 1360.67,-428.46 1361.4,-435.43"/>
<text text-anchor="middle" x="1219.5" y="-459.8" font-family="Helvetica,sans-Serif" font-size="14.00">register[1] fixed after reset</text>
</g>
<!-- fsm&#45;&gt;ar -->
<g id="edge2" class="edge">
<title>fsm&#45;&gt;ar</title>
<path fill="none" stroke="#444444" d="M425.99,-226.49C409.73,-225.65 397,-225 397,-225 397,-225 298,-225 298,-225 298,-225 242.09,-245.99 195.87,-263.34"/>
<polygon fill="#444444" stroke="#444444" points="194.6,-260.08 186.47,-266.87 197.06,-266.63 194.6,-260.08"/>
<text text-anchor="middle" x="347.5" y="-228.8" font-family="Helvetica,sans-Serif" font-size="14.00">drive ARREADY</text>
</g>
<!-- fsm&#45;&gt;aw -->
<g id="edge9" class="edge">
<title>fsm&#45;&gt;aw</title>
<path fill="none" stroke="#444444" d="M565.01,-213.14C581.27,-209.13 594,-206 594,-206 594,-206 697.37,-190.34 788.4,-176.54"/>
<polygon fill="#444444" stroke="#444444" points="788.94,-180 798.3,-175.05 787.89,-173.08 788.94,-180"/>
<text text-anchor="middle" x="663.5" y="-209.8" font-family="Helvetica,sans-Serif" font-size="14.00">drive AWREADY</text>
</g>
<!-- fsm&#45;&gt;w -->
<g id="edge10" class="edge">
<title>fsm&#45;&gt;w</title>
<path fill="none" stroke="#444444" d="M526.82,-180.87C555.44,-134.49 594,-72 594,-72 594,-72 671.66,-67.29 751.63,-62.45"/>
<polygon fill="#444444" stroke="#444444" points="752.13,-65.92 761.9,-61.82 751.71,-58.94 752.13,-65.92"/>
<text text-anchor="middle" x="663.5" y="-75.8" font-family="Helvetica,sans-Serif" font-size="14.00">drive WREADY</text>
</g>
<!-- fsm&#45;&gt;r -->
<g id="edge6" class="edge">
<title>fsm&#45;&gt;r</title>
<path fill="none" stroke="#444444" d="M529.78,-279.15C558.03,-320.87 594,-374 594,-374 594,-374 762,-521 762,-521 762,-521 1407.45,-526.17 1719.68,-528.68"/>
<polygon fill="#444444" stroke="#444444" points="1719.71,-532.18 1729.74,-528.76 1719.76,-525.18 1719.71,-532.18"/>
<text text-anchor="middle" x="1219.5" y="-528.8" font-family="Helvetica,sans-Serif" font-size="14.00">drive RVALID / RRESP</text>
</g>
<!-- fsm&#45;&gt;b -->
<g id="edge19" class="edge">
<title>fsm&#45;&gt;b</title>
<path fill="none" stroke="#444444" d="M565.01,-263.03C581.27,-270.86 594,-277 594,-277 594,-277 703.02,-291.21 795.73,-303.29"/>
<polygon fill="#444444" stroke="#444444" points="795.43,-306.78 805.79,-304.6 796.33,-299.83 795.43,-306.78"/>
<text text-anchor="middle" x="663.5" y="-298.8" font-family="Helvetica,sans-Serif" font-size="14.00">drive BVALID / BRESP</text>
</g>
<!-- fsm&#45;&gt;addr_latch -->
<g id="edge20" class="edge">
<title>fsm&#45;&gt;addr_latch</title>
<path fill="none" stroke="#444444" stroke-dasharray="5,2" d="M550.38,-279.19C572.93,-299.77 594,-319 594,-319 594,-319 747.77,-353.95 845.37,-376.13"/>
<polygon fill="#444444" stroke="#444444" points="844.7,-379.57 855.22,-378.37 846.25,-372.74 844.7,-379.57"/>
<text text-anchor="middle" x="663.5" y="-353.8" font-family="Helvetica,sans-Serif" font-size="14.00">latch enable</text>
</g>
<!-- fsm&#45;&gt;write_buf -->
<g id="edge21" class="edge">
<title>fsm&#45;&gt;write_buf</title>
<path fill="none" stroke="#444444" stroke-dasharray="5,2" d="M523.92,-180.79C552.76,-129.03 594,-55 594,-55 594,-55 762,0 762,0 762,0 1088,0 1088,0 1088,0 1237.06,-19.19 1340.48,-32.51"/>
<polygon fill="#444444" stroke="#444444" points="1340.29,-36.01 1350.66,-33.82 1341.19,-29.07 1340.29,-36.01"/>
<text text-anchor="middle" x="925" y="-3.8" font-family="Helvetica,sans-Serif" font-size="14.00">capture / clear control</text>
</g>
<!-- fsm&#45;&gt;merge -->
<g id="edge22" class="edge">
<title>fsm&#45;&gt;merge</title>
<path fill="none" stroke="#444444" stroke-dasharray="5,2" d="M565.07,-231.52C745.3,-235.51 1218.5,-246 1218.5,-246 1218.5,-246 1218.5,-246 1887,-246 1887,-246 2103.14,-268.49 2229.83,-281.67"/>
<polygon fill="#444444" stroke="#444444" points="2229.61,-285.17 2239.92,-282.72 2230.34,-278.2 2229.61,-285.17"/>
<text text-anchor="middle" x="1438.5" y="-249.8" font-family="Helvetica,sans-Serif" font-size="14.00">write when AW+W complete</text>
</g>
<!-- guard&#45;&gt;merge -->
<g id="edge15" class="edge">
<title>guard&#45;&gt;merge</title>
<path fill="none" stroke="#444444" d="M1970.02,-170.27C2066.01,-183.31 2211,-203 2211,-203 2211,-203 2256.08,-239.56 2288.13,-265.55"/>
<polygon fill="#444444" stroke="#444444" points="2285.99,-268.32 2295.96,-271.91 2290.4,-262.89 2285.99,-268.32"/>
<text text-anchor="middle" x="2141" y="-206.8" font-family="Helvetica,sans-Serif" font-size="14.00">allow only writable regs</text>
</g>
</g>
</svg>
