<?xml version="1.0" encoding="UTF-8" standalone="no"?>
<!DOCTYPE svg PUBLIC "-//W3C//DTD SVG 1.1//EN"
 "http://www.w3.org/Graphics/SVG/1.1/DTD/svg11.dtd">
<!-- Generated by graphviz version 2.43.20190912.0211 (20190912.0211)
 -->
<!-- Title: top_slave_only_fsm Pages: 1 -->
<svg width="1056pt" height="440pt"
 viewBox="0.00 0.00 1055.77 440.00" xmlns="http://www.w3.org/2000/svg" xmlns:xlink="http://www.w3.org/1999/xlink">
<g id="graph0" class="graph" transform="scale(1 1) rotate(0) translate(4 436)">
<title>top_slave_only_fsm</title>
<polygon fill="white" stroke="transparent" points="-4,4 -4,-436 1051.77,-436 1051.77,4 -4,4"/>
<!-- reset -->
<g id="node1" class="node">
<title>reset</title>
<ellipse fill="#eef0ff" stroke="#444444" cx="5.4" cy="-193" rx="5.4" ry="5.4"/>
</g>
<!-- S_IDLE -->
<g id="node2" class="node">
<title>S_IDLE</title>
<ellipse fill="#eaf7ea" stroke="#444444" cx="154.75" cy="-193" rx="40.89" ry="18"/>
<text text-anchor="middle" x="154.75" y="-189.3" font-family="Helvetica,sans-Serif" font-size="14.00">S_IDLE</text>
</g>
<!-- reset&#45;&gt;S_IDLE -->
<g id="edge1" class="edge">
<title>reset&#45;&gt;S_IDLE</title>
<path fill="none" stroke="#444444" d="M10.97,-193C24.94,-193 68.27,-193 103.56,-193"/>
<polygon fill="#444444" stroke="#444444" points="103.74,-196.5 113.74,-193 103.74,-189.5 103.74,-196.5"/>
<text text-anchor="middle" x="62.3" y="-196.8" font-family="Helvetica,sans-Serif" font-size="14.00">reset</text>
</g>
<!-- S_WRITE_REQ -->
<g id="node3" class="node">
<title>S_WRITE_REQ</title>
<ellipse fill="#eef0ff" stroke="#444444" cx="548.44" cy="-334" rx="74.99" ry="18"/>
<text text-anchor="middle" x="548.44" y="-330.3" font-family="Helvetica,sans-Serif" font-size="14.00">S_WRITE_REQ</text>
</g>
<!-- S_IDLE&#45;&gt;S_WRITE_REQ -->
<g id="edge2" class="edge">
<title>S_IDLE&#45;&gt;S_WRITE_REQ</title>
<path fill="none" stroke="#444444" d="M165.92,-210.35C178.63,-230.35 202.31,-262.57 231.69,-279 303.17,-318.98 396.84,-331.17 463.55,-334.3"/>
<polygon fill="#444444" stroke="#444444" points="463.46,-337.8 473.6,-334.72 463.75,-330.81 463.46,-337.8"/>
<text text-anchor="middle" x="334.69" y="-335.8" font-family="Helvetica,sans-Serif" font-size="14.00">btn_step_rise &amp;&amp; current_is_write</text>
</g>
<!-- S_READ_REQ -->
<g id="node5" class="node">
<title>S_READ_REQ</title>
<ellipse fill="#eef0ff" stroke="#444444" cx="548.44" cy="-18" rx="70.39" ry="18"/>
<text text-anchor="middle" x="548.44" y="-14.3" font-family="Helvetica,sans-Serif" font-size="14.00">S_READ_REQ</text>
</g>
<!-- S_IDLE&#45;&gt;S_READ_REQ -->
<g id="edge3" class="edge">
<title>S_IDLE&#45;&gt;S_READ_REQ</title>
<path fill="none" stroke="#444444" d="M163.01,-174.94C173.99,-150.08 197.25,-105.8 231.69,-83 302.38,-36.2 399.96,-22.03 467.86,-18.26"/>
<polygon fill="#444444" stroke="#444444" points="468.26,-21.74 478.07,-17.75 467.91,-14.75 468.26,-21.74"/>
<text text-anchor="middle" x="334.69" y="-86.8" font-family="Helvetica,sans-Serif" font-size="14.00">btn_step_rise &amp;&amp; !current_is_write</text>
</g>
<!-- S_WRITE_REQ&#45;&gt;S_WRITE_REQ -->
<g id="edge4" class="edge">
<title>S_WRITE_REQ&#45;&gt;S_WRITE_REQ</title>
<path fill="none" stroke="#888888" d="M522.37,-351.07C499.31,-374.05 508,-402 548.44,-402 584.45,-402 595.28,-379.83 580.93,-358.75"/>
<polygon fill="#888888" stroke="#888888" points="583.6,-356.49 574.5,-351.07 578.24,-360.99 583.6,-356.49"/>
<text text-anchor="middle" x="548.44" y="-420.8" font-family="Helvetica,sans-Serif" font-size="14.00">wait for both AW and W</text>
<text text-anchor="middle" x="548.44" y="-405.8" font-family="Helvetica,sans-Serif" font-size="14.00">aw_done / w_done track partial progress</text>
</g>
<!-- S_WRITE_RESP -->
<g id="node4" class="node">
<title>S_WRITE_RESP</title>
<ellipse fill="#eef0ff" stroke="#444444" cx="968.47" cy="-291" rx="79.09" ry="18"/>
<text text-anchor="middle" x="968.47" y="-287.3" font-family="Helvetica,sans-Serif" font-size="14.00">S_WRITE_RESP</text>
</g>
<!-- S_WRITE_REQ&#45;&gt;S_WRITE_RESP -->
<g id="edge5" class="edge">
<title>S_WRITE_REQ&#45;&gt;S_WRITE_RESP</title>
<path fill="none" stroke="#444444" d="M617.53,-327C690.82,-319.46 807.38,-307.47 885.61,-299.42"/>
<polygon fill="#444444" stroke="#444444" points="886.32,-302.87 895.9,-298.36 885.6,-295.9 886.32,-302.87"/>
<text text-anchor="middle" x="756.18" y="-325.8" font-family="Helvetica,sans-Serif" font-size="14.00">next_aw_done &amp;&amp; next_w_done</text>
</g>
<!-- S_WRITE_RESP&#45;&gt;S_IDLE -->
<g id="edge6" class="edge">
<title>S_WRITE_RESP&#45;&gt;S_IDLE</title>
<path fill="none" stroke="#444444" d="M891.19,-286.74C756.97,-278.4 470.17,-256.78 231.69,-213 221.02,-211.04 209.65,-208.37 199.04,-205.61"/>
<polygon fill="#444444" stroke="#444444" points="199.71,-202.17 189.15,-202.97 197.9,-208.93 199.71,-202.17"/>
<text text-anchor="middle" x="548.44" y="-268.8" font-family="Helvetica,sans-Serif" font-size="14.00">b_hs</text>
</g>
<!-- S_READ_RESP -->
<g id="node6" class="node">
<title>S_READ_RESP</title>
<ellipse fill="#eef0ff" stroke="#444444" cx="968.47" cy="-113" rx="74.99" ry="18"/>
<text text-anchor="middle" x="968.47" y="-109.3" font-family="Helvetica,sans-Serif" font-size="14.00">S_READ_RESP</text>
</g>
<!-- S_READ_REQ&#45;&gt;S_READ_RESP -->
<g id="edge7" class="edge">
<title>S_READ_REQ&#45;&gt;S_READ_RESP</title>
<path fill="none" stroke="#444444" d="M604.48,-28.99C665.46,-41.34 766.62,-62.39 853.18,-83 871.28,-87.31 890.9,-92.33 908.7,-97.02"/>
<polygon fill="#444444" stroke="#444444" points="907.81,-100.41 918.37,-99.58 909.6,-93.64 907.81,-100.41"/>
<text text-anchor="middle" x="756.18" y="-86.8" font-family="Helvetica,sans-Serif" font-size="14.00">ar_hs</text>
</g>
<!-- S_READ_RESP&#45;&gt;S_IDLE -->
<g id="edge8" class="edge">
<title>S_READ_RESP&#45;&gt;S_IDLE</title>
<path fill="none" stroke="#444444" d="M898.98,-119.75C739.11,-135.51 344.36,-174.41 205.24,-188.12"/>
<polygon fill="#444444" stroke="#444444" points="204.51,-184.68 194.9,-189.14 205.19,-191.64 204.51,-184.68"/>
<text text-anchor="middle" x="548.44" y="-163.8" font-family="Helvetica,sans-Serif" font-size="14.00">r_hs</text>
</g>
</g>
</svg>
