<?xml version="1.0" encoding="UTF-8" standalone="no"?>
<!DOCTYPE svg PUBLIC "-//W3C//DTD SVG 1.1//EN"
 "http://www.w3.org/Graphics/SVG/1.1/DTD/svg11.dtd">
<!-- Generated by graphviz version 2.43.20190912.0211 (20190912.0211)
 -->
<!-- Title: top_slave_only_datapath Pages: 1 -->
<svg width="2105pt" height="379pt"
 viewBox="0.00 0.00 2105.00 379.00" xmlns="http://www.w3.org/2000/svg" xmlns:xlink="http://www.w3.org/1999/xlink">
<g id="graph0" class="graph" transform="scale(1 1) rotate(0) translate(4 375)">
<title>top_slave_only_datapath</title>
<polygon fill="white" stroke="transparent" points="-4,4 -4,-375 2101,-375 2101,4 -4,4"/>
<!-- buttons -->
<g id="node1" class="node">
<title>buttons</title>
<path fill="#e8f1fb" stroke="#444444" d="M65,-303.5C65,-303.5 12,-303.5 12,-303.5 6,-303.5 0,-297.5 0,-291.5 0,-291.5 0,-262.5 0,-262.5 0,-256.5 6,-250.5 12,-250.5 12,-250.5 65,-250.5 65,-250.5 71,-250.5 77,-256.5 77,-262.5 77,-262.5 77,-291.5 77,-291.5 77,-297.5 71,-303.5 65,-303.5"/>
<text text-anchor="middle" x="38.5" y="-288.3" font-family="Helvetica,sans-Serif" font-size="14.00">Inputs</text>
<text text-anchor="middle" x="38.5" y="-273.3" font-family="Helvetica,sans-Serif" font-size="14.00">btn_mode</text>
<text text-anchor="middle" x="38.5" y="-258.3" font-family="Helvetica,sans-Serif" font-size="14.00">btn_step</text>
</g>
<!-- sync -->
<g id="node2" class="node">
<title>sync</title>
<path fill="#fff6dd" stroke="#444444" d="M302,-296C302,-296 156,-296 156,-296 150,-296 144,-290 144,-284 144,-284 144,-270 144,-270 144,-264 150,-258 156,-258 156,-258 302,-258 302,-258 308,-258 314,-264 314,-270 314,-270 314,-284 314,-284 314,-290 308,-296 302,-296"/>
<text text-anchor="middle" x="229" y="-280.8" font-family="Helvetica,sans-Serif" font-size="14.00">Button Synchronizer</text>
<text text-anchor="middle" x="229" y="-265.8" font-family="Helvetica,sans-Serif" font-size="14.00">2&#45;FF sync for each button</text>
</g>
<!-- buttons&#45;&gt;sync -->
<g id="edge1" class="edge">
<title>buttons&#45;&gt;sync</title>
<path fill="none" stroke="#444444" d="M77.19,-277C93.55,-277 113.52,-277 133.5,-277"/>
<polygon fill="#444444" stroke="#444444" points="133.62,-280.5 143.62,-277 133.62,-273.5 133.62,-280.5"/>
</g>
<!-- edge_detect -->
<g id="node3" class="node">
<title>edge_detect</title>
<path fill="#fff6dd" stroke="#444444" d="M476,-303.5C476,-303.5 393,-303.5 393,-303.5 387,-303.5 381,-297.5 381,-291.5 381,-291.5 381,-262.5 381,-262.5 381,-256.5 387,-250.5 393,-250.5 393,-250.5 476,-250.5 476,-250.5 482,-250.5 488,-256.5 488,-262.5 488,-262.5 488,-291.5 488,-291.5 488,-297.5 482,-303.5 476,-303.5"/>
<text text-anchor="middle" x="434.5" y="-288.3" font-family="Helvetica,sans-Serif" font-size="14.00">Edge Detector</text>
<text text-anchor="middle" x="434.5" y="-273.3" font-family="Helvetica,sans-Serif" font-size="14.00">btn_mode_rise</text>
<text text-anchor="middle" x="434.5" y="-258.3" font-family="Helvetica,sans-Serif" font-size="14.00">btn_step_rise</text>
</g>
<!-- sync&#45;&gt;edge_detect -->
<g id="edge2" class="edge">
<title>sync&#45;&gt;edge_detect</title>
<path fill="none" stroke="#444444" d="M314.24,-277C333.07,-277 352.72,-277 370.52,-277"/>
<polygon fill="#444444" stroke="#444444" points="370.76,-280.5 380.76,-277 370.76,-273.5 370.76,-280.5"/>
</g>
<!-- display_mode -->
<g id="node4" class="node">
<title>display_mode</title>
<path fill="#eef0ff" stroke="#444444" d="M1012,-371C1012,-371 883,-371 883,-371 877,-371 871,-365 871,-359 871,-359 871,-345 871,-345 871,-339 877,-333 883,-333 883,-333 1012,-333 1012,-333 1018,-333 1024,-339 1024,-345 1024,-345 1024,-359 1024,-359 1024,-365 1018,-371 1012,-371"/>
<text text-anchor="middle" x="947.5" y="-355.8" font-family="Helvetica,sans-Serif" font-size="14.00">Display Mode Register</text>
<text text-anchor="middle" x="947.5" y="-340.8" font-family="Helvetica,sans-Serif" font-size="14.00">0..3</text>
</g>
<!-- edge_detect&#45;&gt;display_mode -->
<g id="edge3" class="edge">
<title>edge_detect&#45;&gt;display_mode</title>
<path fill="none" stroke="#444444" d="M488.26,-284.74C576.45,-297.69 754.58,-323.83 860.91,-339.44"/>
<polygon fill="#444444" stroke="#444444" points="860.56,-342.92 870.97,-340.91 861.58,-336 860.56,-342.92"/>
<text text-anchor="middle" x="566.5" y="-304.8" font-family="Helvetica,sans-Serif" font-size="14.00">btn_mode_rise</text>
</g>
<!-- ctrl -->
<g id="node6" class="node">
<title>ctrl</title>
<path fill="#eef0ff" stroke="#444444" d="M782,-252C782,-252 657,-252 657,-252 651,-252 645,-246 645,-240 645,-240 645,-166 645,-166 645,-160 651,-154 657,-154 657,-154 782,-154 782,-154 788,-154 794,-160 794,-166 794,-166 794,-240 794,-240 794,-246 788,-252 782,-252"/>
<text text-anchor="middle" x="719.5" y="-236.8" font-family="Helvetica,sans-Serif" font-size="14.00">Demo Controller FSM</text>
<text text-anchor="middle" x="719.5" y="-221.8" font-family="Helvetica,sans-Serif" font-size="14.00">S_IDLE</text>
<text text-anchor="middle" x="719.5" y="-206.8" font-family="Helvetica,sans-Serif" font-size="14.00">S_WRITE_REQ</text>
<text text-anchor="middle" x="719.5" y="-191.8" font-family="Helvetica,sans-Serif" font-size="14.00">S_WRITE_RESP</text>
<text text-anchor="middle" x="719.5" y="-176.8" font-family="Helvetica,sans-Serif" font-size="14.00">S_READ_REQ</text>
<text text-anchor="middle" x="719.5" y="-161.8" font-family="Helvetica,sans-Serif" font-size="14.00">S_READ_RESP</text>
</g>
<!-- edge_detect&#45;&gt;ctrl -->
<g id="edge4" class="edge">
<title>edge_detect&#45;&gt;ctrl</title>
<path fill="none" stroke="#444444" d="M488.07,-263.25C529.34,-252.46 587.59,-237.23 635.2,-224.78"/>
<polygon fill="#444444" stroke="#444444" points="636.09,-228.17 644.88,-222.25 634.32,-221.39 636.09,-228.17"/>
<text text-anchor="middle" x="566.5" y="-256.8" font-family="Helvetica,sans-Serif" font-size="14.00">btn_step_rise</text>
</g>
<!-- ledmux -->
<g id="node9" class="node">
<title>ledmux</title>
<path fill="#eaf7ea" stroke="#444444" d="M1949,-254.5C1949,-254.5 1792,-254.5 1792,-254.5 1786,-254.5 1780,-248.5 1780,-242.5 1780,-242.5 1780,-183.5 1780,-183.5 1780,-177.5 1786,-171.5 1792,-171.5 1792,-171.5 1949,-171.5 1949,-171.5 1955,-171.5 1961,-177.5 1961,-183.5 1961,-183.5 1961,-242.5 1961,-242.5 1961,-248.5 1955,-254.5 1949,-254.5"/>
<text text-anchor="middle" x="1870.5" y="-239.3" font-family="Helvetica,sans-Serif" font-size="14.00">LED Mux</text>
<text text-anchor="middle" x="1870.5" y="-224.3" font-family="Helvetica,sans-Serif" font-size="14.00">mode 0: state + step</text>
<text text-anchor="middle" x="1870.5" y="-209.3" font-family="Helvetica,sans-Serif" font-size="14.00">mode 1: read data[7:0]</text>
<text text-anchor="middle" x="1870.5" y="-194.3" font-family="Helvetica,sans-Serif" font-size="14.00">mode 2: pass/fail + resp</text>
<text text-anchor="middle" x="1870.5" y="-179.3" font-family="Helvetica,sans-Serif" font-size="14.00">mode 3: handshake activity</text>
</g>
<!-- display_mode&#45;&gt;ledmux -->
<g id="edge10" class="edge">
<title>display_mode&#45;&gt;ledmux</title>
<path fill="none" stroke="#444444" d="M1024.34,-348.96C1223.66,-340.97 1747,-320 1747,-320 1747,-320 1781.62,-289.76 1814.05,-261.43"/>
<polygon fill="#444444" stroke="#444444" points="1816.56,-263.89 1821.79,-254.68 1811.95,-258.62 1816.56,-263.89"/>
<text text-anchor="middle" x="1354.5" y="-341.8" font-family="Helvetica,sans-Serif" font-size="14.00">select</text>
</g>
<!-- demo_seq -->
<g id="node5" class="node">
<title>demo_seq</title>
<path fill="#eef0ff" stroke="#444444" d="M1227,-132C1227,-132 1113,-132 1113,-132 1107,-132 1101,-126 1101,-120 1101,-120 1101,-46 1101,-46 1101,-40 1107,-34 1113,-34 1113,-34 1227,-34 1227,-34 1233,-34 1239,-40 1239,-46 1239,-46 1239,-120 1239,-120 1239,-126 1233,-132 1227,-132"/>
<text text-anchor="middle" x="1170" y="-116.8" font-family="Helvetica,sans-Serif" font-size="14.00">Demo Step Selector</text>
<text text-anchor="middle" x="1170" y="-101.8" font-family="Helvetica,sans-Serif" font-size="14.00">0: read ID</text>
<text text-anchor="middle" x="1170" y="-86.8" font-family="Helvetica,sans-Serif" font-size="14.00">1: write reg0</text>
<text text-anchor="middle" x="1170" y="-71.8" font-family="Helvetica,sans-Serif" font-size="14.00">2: read reg0</text>
<text text-anchor="middle" x="1170" y="-56.8" font-family="Helvetica,sans-Serif" font-size="14.00">3: try write ID</text>
<text text-anchor="middle" x="1170" y="-41.8" font-family="Helvetica,sans-Serif" font-size="14.00">4: read ID again</text>
</g>
<!-- demo_seq&#45;&gt;ctrl -->
<g id="edge5" class="edge">
<title>demo_seq&#45;&gt;ctrl</title>
<path fill="none" stroke="#444444" d="M1100.61,-101C1000.81,-127.26 827,-173 827,-173 827,-173 817.42,-175.7 804.01,-179.48"/>
<polygon fill="#444444" stroke="#444444" points="802.85,-176.17 794.18,-182.25 804.75,-182.9 802.85,-176.17"/>
<text text-anchor="middle" x="947.5" y="-176.8" font-family="Helvetica,sans-Serif" font-size="14.00">current transaction</text>
</g>
<!-- status -->
<g id="node8" class="node">
<title>status</title>
<path fill="#fdeaea" stroke="#444444" d="M1584,-133C1584,-133 1482,-133 1482,-133 1476,-133 1470,-127 1470,-121 1470,-121 1470,-47 1470,-47 1470,-41 1476,-35 1482,-35 1482,-35 1584,-35 1584,-35 1590,-35 1596,-41 1596,-47 1596,-47 1596,-121 1596,-121 1596,-127 1590,-133 1584,-133"/>
<text text-anchor="middle" x="1533" y="-117.8" font-family="Helvetica,sans-Serif" font-size="14.00">Result Registers</text>
<text text-anchor="middle" x="1533" y="-102.8" font-family="Helvetica,sans-Serif" font-size="14.00">last_read_data</text>
<text text-anchor="middle" x="1533" y="-87.8" font-family="Helvetica,sans-Serif" font-size="14.00">last_read_resp</text>
<text text-anchor="middle" x="1533" y="-72.8" font-family="Helvetica,sans-Serif" font-size="14.00">last_write_resp</text>
<text text-anchor="middle" x="1533" y="-57.8" font-family="Helvetica,sans-Serif" font-size="14.00">last_op_was_read</text>
<text text-anchor="middle" x="1533" y="-42.8" font-family="Helvetica,sans-Serif" font-size="14.00">last_check_pass</text>
</g>
<!-- demo_seq&#45;&gt;status -->
<g id="edge9" class="edge">
<title>demo_seq&#45;&gt;status</title>
<path fill="none" stroke="#444444" d="M1239.33,-83.19C1302.39,-83.36 1395.71,-83.62 1459.93,-83.8"/>
<polygon fill="#444444" stroke="#444444" points="1459.97,-87.3 1469.98,-83.83 1459.99,-80.3 1459.97,-87.3"/>
<text text-anchor="middle" x="1354.5" y="-87.8" font-family="Helvetica,sans-Serif" font-size="14.00">expected_rdata</text>
</g>
<!-- demo_seq&#45;&gt;ledmux -->
<g id="edge12" class="edge">
<title>demo_seq&#45;&gt;ledmux</title>
<path fill="none" stroke="#444444" d="M1239.22,-64.06C1327.47,-39.57 1470,0 1470,0 1470,0 1596,0 1596,0 1596,0 1747,-113 1747,-113 1747,-113 1779.26,-139.33 1810.67,-164.97"/>
<polygon fill="#444444" stroke="#444444" points="1808.65,-167.85 1818.61,-171.46 1813.08,-162.42 1808.65,-167.85"/>
<text text-anchor="middle" x="1533" y="-3.8" font-family="Helvetica,sans-Serif" font-size="14.00">demo_step</text>
</g>
<!-- ctrl&#45;&gt;demo_seq -->
<g id="edge6" class="edge">
<title>ctrl&#45;&gt;demo_seq</title>
<path fill="none" stroke="#444444" d="M764.74,-153.98C794,-121.56 827,-85 827,-85 827,-85 989.46,-84.05 1090.44,-83.46"/>
<polygon fill="#444444" stroke="#444444" points="1090.63,-86.96 1100.61,-83.4 1090.59,-79.96 1090.63,-86.96"/>
<text text-anchor="middle" x="947.5" y="-88.8" font-family="Helvetica,sans-Serif" font-size="14.00">advance step after completed read/write</text>
</g>
<!-- axi -->
<g id="node7" class="node">
<title>axi</title>
<path fill="#f3ebff" stroke="#444444" d="M1213,-221C1213,-221 1127,-221 1127,-221 1121,-221 1115,-215 1115,-209 1115,-209 1115,-197 1115,-197 1115,-191 1121,-185 1127,-185 1127,-185 1213,-185 1213,-185 1219,-185 1225,-191 1225,-197 1225,-197 1225,-209 1225,-209 1225,-215 1219,-221 1213,-221"/>
<text text-anchor="middle" x="1170" y="-199.3" font-family="Helvetica,sans-Serif" font-size="14.00">AXI4&#45;Lite Slave</text>
</g>
<!-- ctrl&#45;&gt;axi -->
<g id="edge7" class="edge">
<title>ctrl&#45;&gt;axi</title>
<path fill="none" stroke="#444444" d="M794.18,-199.54C812.49,-198.68 827,-198 827,-198 827,-198 1068,-198 1068,-198 1068,-198 1084.94,-198.84 1104.95,-199.83"/>
<polygon fill="#444444" stroke="#444444" points="1104.79,-203.33 1114.95,-200.32 1105.14,-196.33 1104.79,-203.33"/>
<text text-anchor="middle" x="947.5" y="-246.8" font-family="Helvetica,sans-Serif" font-size="14.00">s_araddr / s_arvalid / s_rready</text>
<text text-anchor="middle" x="947.5" y="-231.8" font-family="Helvetica,sans-Serif" font-size="14.00">s_awaddr / s_awvalid</text>
<text text-anchor="middle" x="947.5" y="-216.8" font-family="Helvetica,sans-Serif" font-size="14.00">s_wdata / s_wstrb / s_wvalid</text>
<text text-anchor="middle" x="947.5" y="-201.8" font-family="Helvetica,sans-Serif" font-size="14.00">s_bready</text>
</g>
<!-- ctrl&#45;&gt;ledmux -->
<g id="edge11" class="edge">
<title>ctrl&#45;&gt;ledmux</title>
<path fill="none" stroke="#444444" d="M794.18,-245.2C812.49,-255.69 827,-264 827,-264 827,-264 1068,-264 1068,-264 1068,-264 1747,-241 1747,-241 1747,-241 1756.34,-238.87 1769.86,-235.77"/>
<polygon fill="#444444" stroke="#444444" points="1770.86,-239.14 1779.83,-233.5 1769.3,-232.31 1770.86,-239.14"/>
<text text-anchor="middle" x="1354.5" y="-259.8" font-family="Helvetica,sans-Serif" font-size="14.00">state</text>
</g>
<!-- axi&#45;&gt;status -->
<g id="edge8" class="edge">
<title>axi&#45;&gt;status</title>
<path fill="none" stroke="#444444" d="M1206.89,-184.88C1235.92,-170.22 1272,-152 1272,-152 1272,-152 1383.1,-122.94 1460.05,-102.82"/>
<polygon fill="#444444" stroke="#444444" points="1460.93,-106.2 1469.72,-100.29 1459.16,-99.43 1460.93,-106.2"/>
<text text-anchor="middle" x="1354.5" y="-170.8" font-family="Helvetica,sans-Serif" font-size="14.00">s_rdata / s_rresp / s_bresp</text>
<text text-anchor="middle" x="1354.5" y="-155.8" font-family="Helvetica,sans-Serif" font-size="14.00">AW/W/AR/R/B handshakes</text>
</g>
<!-- axi&#45;&gt;ledmux -->
<g id="edge14" class="edge">
<title>axi&#45;&gt;ledmux</title>
<path fill="none" stroke="#444444" d="M1225.23,-203.78C1342.26,-205.45 1620.01,-209.43 1769.74,-211.57"/>
<polygon fill="#444444" stroke="#444444" points="1769.81,-215.07 1779.85,-211.72 1769.91,-208.07 1769.81,-215.07"/>
<text text-anchor="middle" x="1533" y="-211.8" font-family="Helvetica,sans-Serif" font-size="14.00">handshake activity</text>
</g>
<!-- status&#45;&gt;ledmux -->
<g id="edge13" class="edge">
<title>status&#45;&gt;ledmux</title>
<path fill="none" stroke="#444444" d="M1596.32,-107.96C1645.13,-126.73 1713.98,-153.2 1770.34,-174.87"/>
<polygon fill="#444444" stroke="#444444" points="1769.4,-178.26 1779.99,-178.58 1771.92,-171.73 1769.4,-178.26"/>
<text text-anchor="middle" x="1688" y="-167.8" font-family="Helvetica,sans-Serif" font-size="14.00">last observed result</text>
</g>
<!-- led -->
<g id="node10" class="node">
<title>led</title>
<path fill="#eaf7ea" stroke="#444444" d="M2085,-231C2085,-231 2040,-231 2040,-231 2034,-231 2028,-225 2028,-219 2028,-219 2028,-207 2028,-207 2028,-201 2034,-195 2040,-195 2040,-195 2085,-195 2085,-195 2091,-195 2097,-201 2097,-207 2097,-207 2097,-219 2097,-219 2097,-225 2091,-231 2085,-231"/>
<text text-anchor="middle" x="2062.5" y="-209.3" font-family="Helvetica,sans-Serif" font-size="14.00">LED[7:0]</text>
</g>
<!-- ledmux&#45;&gt;led -->
<g id="edge15" class="edge">
<title>ledmux&#45;&gt;led</title>
<path fill="none" stroke="#444444" d="M1961.21,-213C1980.79,-213 2000.66,-213 2017.5,-213"/>
<polygon fill="#444444" stroke="#444444" points="2017.56,-216.5 2027.56,-213 2017.56,-209.5 2017.56,-216.5"/>
</g>
</g>
</svg>
